<svg xmlns="http://www.w3.org/2000/svg" width="500" height="500" style="width:100%;height:100%;transform:translate3d(0,0,0)" viewBox="0 0 500 500"><defs><clipPath id="a"><path d="M0 0h500v500H0z"/></clipPath><clipPath id="c"><path d="M0 0h500v500H0z"/></clipPath><clipPath id="b"><path d="M0 0h500v500H0z"/></clipPath></defs><g clip-path="url(#a)"><g clip-path="url(#b)" style="display:block"><path fill="none" class="primary design" style="display:none"/><path fill="none" class="primary design" style="display:none"/><path fill="none" class="primary design" style="display:none"/><path fill="#FBFBFB" d="M-1.215-5.619a.999.999 0 1 0-1.57 1.238L.72.069l-3.496 4.3a1 1 0 1 0 1.552 1.262l4-4.921a.999.999 0 0 0 .009-1.249l-4-5.08z" class="primary design" style="display:block" transform="translate(395.809 249.993) scale(20.83)"/><path fill="#FBFBFB" d="M2.631-5.776a1.001 1.001 0 0 0-1.407.145l-4 4.921A.999.999 0 0 0-2.785.539l4 5.08a.998.998 0 1 0 1.57-1.238L-.72-.069l3.496-4.3a1 1 0 0 0-.145-1.407z" class="primary design" style="display:block" transform="translate(104.187 249.998) scale(20.83)"/><path fill="#FBFBFB" d="M1.196-5.981a.998.998 0 0 0-1.176.785l-2 10a1 1 0 1 0 1.96.392l2-10a1 1 0 0 0-.784-1.177z" class="primary design" style="display:block" transform="translate(249.998 249.999) scale(20.83)"/><path class="primary design" style="display:none"/><path class="primary design" style="display:none"/><path class="primary design" style="display:none"/></g><g clip-path="url(#c)" opacity="0" style="display:block"><path fill="none" class="primary design" style="display:none"/><path fill="none" class="primary design" style="display:none"/><path fill="none" class="primary design" style="display:none"/><path class="primary design" style="display:none"/><path class="primary design" style="display:none"/><path class="primary design" style="display:none"/></g><g class="com" style="display:none"><path/><path/><path/><path/><path/><path/><path/><path/><path/><path/><path/><path/></g></g></svg>