<svg xmlns="http://www.w3.org/2000/svg" width="500" height="500" style="width:100%;height:100%;transform:translate3d(0,0,0)" viewBox="0 0 500 500"><defs><clipPath id="a"><path d="M0 0h500v500H0z"/></clipPath><clipPath id="c"><path d="M0 0h500v500H0z"/></clipPath><clipPath id="b"><path d="M0 0h500v500H0z"/></clipPath></defs><g clip-path="url(#a)"><g clip-path="url(#b)" style="display:block"><path fill="#FBFBFB" d="M62.546 270.333c-11.458 0-20.833 9.376-20.833 20.834v104.166c0 11.458 9.375 20.834 20.833 20.834 11.458 0 20.833-9.376 20.833-20.834V291.167c0-11.458-9.375-20.834-20.833-20.834zm170.208 12.5h-19.792V247c0-12.917-5-25-14.167-34.167-8.958-9.167-21.249-14.166-34.166-14.166-5.625 0-10.833 3.125-13.75 8.125l-24.828 46.011-20.589 38.156c-1.25 2.291-1.875 4.999-1.875 7.499v102.084c0 8.541 6.875 15.625 15.625 15.625h100.001c18.125 0 33.75-12.917 37.291-30.209l13.542-57.5c2.291-11.25-.626-22.708-7.917-31.666-7.292-8.751-17.917-13.959-29.375-13.959zm204.792-200c-11.458 0-20.833 9.376-20.833 20.834v104.166c0 11.458 9.375 20.834 20.833 20.834 11.458 0 20.833-9.376 20.833-20.834V103.667c0-11.458-9.375-20.834-20.833-20.834zm-56.875 0H280.67c-18.125 0-33.957 12.917-37.5 30.209l-13.54 57.5c-2.293 11.25.624 22.708 7.916 31.666 7.291 8.751 18.125 13.959 29.583 13.959h19.584V252c0 26.667 21.666 48.333 48.333 48.333 5.624 0 11.042-3.125 13.75-8.125l23.37-43.112 22.255-41.054c1.25-2.291 1.875-5 1.875-7.5V98.458c0-8.541-7.084-15.625-15.625-15.625z" class="primary design" style="display:block"/></g><g clip-path="url(#c)" opacity="0" style="display:block"><g class="primary design" style="display:none"><path/><path/></g><g class="primary design" style="display:none"><path/><path/></g></g><g class="com" style="display:none"><path/><path/><path/><path/><path/><path/><path/><path/><path/><path/><path/><path/></g></g></svg>