<?xml version="1.0" encoding="UTF-8" standalone="no"?>
<!DOCTYPE svg PUBLIC "-//W3C//DTD SVG 1.1//EN" "http://www.w3.org/Graphics/SVG/1.1/DTD/svg11.dtd">
<!-- Created with Vectornator (http://vectornator.io/) -->
<svg height="100%" stroke-miterlimit="10" style="fill-rule:nonzero;clip-rule:evenodd;stroke-linecap:round;stroke-linejoin:round;" version="1.1" viewBox="0 0 16 16" width="100%" xml:space="preserve" xmlns="http://www.w3.org/2000/svg" xmlns:vectornator="http://vectornator.io" xmlns:xlink="http://www.w3.org/1999/xlink">
<defs/>
<g id="Untitled" vectornator:layerName="Untitled">
<path d="M8.707 1.5C8.3165 1.10962 7.6835 1.10962 7.293 1.5L0.646 8.146C0.450491 8.34151 0.450491 8.65849 0.646 8.854C0.841509 9.04951 1.15849 9.04951 1.354 8.854L8 2.207L14.646 8.854C14.8415 9.04951 15.1585 9.04951 15.354 8.854C15.5495 8.65849 15.5495 8.34151 15.354 8.146L13 5.793L13 2.5C13 2.22386 12.7761 2 12.5 2L11.5 2C11.2239 2 11 2.22386 11 2.5L11 3.793L8.707 1.5Z" fill="#fcfcfc" fill-rule="nonzero" opacity="1" stroke="none" vectornator:layerName="path"/>
<path d="M8 3.293L14 9.293L14 13.5C14 14.3284 13.3284 15 12.5 15L3.5 15C2.67157 15 2 14.3284 2 13.5L2 9.293C2 9.293 8 3.293 8 3.293Z" fill="#fcfcfc" fill-rule="nonzero" opacity="1" stroke="none" vectornator:layerName="path"/>
</g>
</svg>
