<svg width="18" height="15" viewBox="0 0 18 15" fill="none" xmlns="http://www.w3.org/2000/svg">
<path fill-rule="evenodd" clip-rule="evenodd" d="M0 13.9091C0 13.4572 0.366312 13.0909 0.818182 13.0909H17.1818C17.6337 13.0909 18 13.4572 18 13.9091C18 14.361 17.6337 14.7273 17.1818 14.7273H0.818182C0.366312 14.7273 0 14.361 0 13.9091Z" fill="#FCFCFC"/>
<path fill-rule="evenodd" clip-rule="evenodd" d="M0 7.36364C0 6.91177 0.366312 6.54545 0.818182 6.54545H17.1818C17.6337 6.54545 18 6.91177 18 7.36364C18 7.81551 17.6337 8.18182 17.1818 8.18182H0.818182C0.366312 8.18182 0 7.81551 0 7.36364Z" fill="#FCFCFC"/>
<path fill-rule="evenodd" clip-rule="evenodd" d="M0 0.818182C0 0.366313 0.366312 0 0.818182 0H17.1818C17.6337 0 18 0.366313 18 0.818182C18 1.27005 17.6337 1.63636 17.1818 1.63636H0.818182C0.366312 1.63636 0 1.27005 0 0.818182Z" fill="#FCFCFC"/>
</svg>
